<?xml version="1.0" encoding="UTF-8" standalone="no"?>
<svg width="636px" height="553px" viewBox="0 0 636 553" version="1.1" xmlns="http://www.w3.org/2000/svg" xmlns:xlink="http://www.w3.org/1999/xlink">
    <!-- Generator: Sketch 39.1 (31720) - http://www.bohemiancoding.com/sketch -->
    <title>constalation</title>
    <desc>Created with Sketch.</desc>
    <defs>
        <radialGradient cx="40.8599778%" cy="64.1126161%" fx="40.8599778%" fy="64.1126161%" r="66.6557776%" id="radialGradient-1">
            <stop stop-color="#3690FF" offset="0%"></stop>
            <stop stop-color="#3690FF" stop-opacity="0.753992417" offset="67.2466383%"></stop>
            <stop stop-color="#3690FF" stop-opacity="0" offset="100%"></stop>
        </radialGradient>
        <radialGradient cx="50%" cy="45.1297802%" fx="50%" fy="45.1297802%" r="70.5569423%" id="radialGradient-2">
            <stop stop-color="#FFF800" offset="0%"></stop>
            <stop stop-color="#D84400" offset="100%"></stop>
        </radialGradient>
        <radialGradient cx="42.3421499%" cy="60.168315%" fx="42.3421499%" fy="60.168315%" r="66.6557776%" id="radialGradient-3">
            <stop stop-color="#3690FF" offset="0%"></stop>
            <stop stop-color="#3690FF" stop-opacity="0.753992417" offset="67.2466383%"></stop>
            <stop stop-color="#3690FF" stop-opacity="0" offset="100%"></stop>
        </radialGradient>
        <radialGradient cx="40.8599778%" cy="64.1126161%" fx="40.8599778%" fy="64.1126161%" r="66.6557776%" id="radialGradient-4">
            <stop stop-color="#3690FF" offset="0%"></stop>
            <stop stop-color="#3690FF" offset="67.2466383%"></stop>
            <stop stop-color="#A940FF" stop-opacity="0" offset="100%"></stop>
        </radialGradient>
        <radialGradient cx="60.7328869%" cy="36.7234003%" fx="60.7328869%" fy="36.7234003%" r="66.6557776%" id="radialGradient-5">
            <stop stop-color="#81B9FF" offset="0%"></stop>
            <stop stop-color="#81B9FF" offset="67.2466383%"></stop>
            <stop stop-color="#A940FF" stop-opacity="0" offset="100%"></stop>
        </radialGradient>
        <radialGradient cx="40.8599778%" cy="64.1126161%" fx="40.8599778%" fy="64.1126161%" r="66.6557776%" id="radialGradient-6">
            <stop stop-color="#81B9FF" offset="0%"></stop>
            <stop stop-color="#81B9FF" offset="67.2466383%"></stop>
            <stop stop-color="#A940FF" stop-opacity="0" offset="100%"></stop>
        </radialGradient>
        <radialGradient cx="59.9040504%" cy="61.7358161%" fx="59.9040504%" fy="61.7358161%" r="66.6557776%" id="radialGradient-7">
            <stop stop-color="#81B9FF" offset="0%"></stop>
            <stop stop-color="#81B9FF" offset="67.2466383%"></stop>
            <stop stop-color="#A940FF" stop-opacity="0" offset="100%"></stop>
        </radialGradient>
        <circle id="path-8" cx="291.5" cy="291.5" r="291.5"></circle>
        <mask id="mask-9" maskContentUnits="userSpaceOnUse" maskUnits="objectBoundingBox" x="-5" y="-5" width="593" height="593">
            <rect x="-5" y="-5" width="593" height="593" fill="white"></rect>
            <use xlink:href="#path-8" fill="black"></use>
        </mask>
        <circle id="path-10" cx="291.5" cy="291.5" r="291.5"></circle>
        <mask id="mask-11" maskContentUnits="userSpaceOnUse" maskUnits="objectBoundingBox" x="-12.5" y="-12.5" width="608" height="608">
            <rect x="-12.5" y="-12.5" width="608" height="608" fill="white"></rect>
            <use xlink:href="#path-10" fill="black"></use>
        </mask>
        <circle id="path-12" cx="291.5" cy="291.5" r="291.5"></circle>
        <mask id="mask-13" maskContentUnits="userSpaceOnUse" maskUnits="objectBoundingBox" x="-0.25" y="-0.25" width="583.5" height="583.5">
            <rect x="-0.25" y="-0.25" width="583.5" height="583.5" fill="white"></rect>
            <use xlink:href="#path-12" fill="black"></use>
        </mask>
        <radialGradient cx="60.3665865%" cy="46.7685404%" fx="60.3665865%" fy="46.7685404%" r="68.0016328%" id="radialGradient-14">
            <stop stop-color="#FFF800" offset="0%"></stop>
            <stop stop-color="#D84400" offset="100%"></stop>
        </radialGradient>
    </defs>
    <g id="Page-1" stroke="none" stroke-width="1" fill="none" fill-rule="evenodd" opacity="0.75">
        <g id="Home-Artboard" transform="translate(-387.000000, 0.000000)">
            <g id="constalation" transform="translate(320.000000, -143.000000)">
                <polyline id="Missing-links" stroke="url(#radialGradient-1)" stroke-width="0.25" points="152.850586 107.166992 302.980469 316.47168 426.073242 333.06543 421.739258 379.694336 438.15625 393.092773 430.443359 410.370117 427.90625 394.954102 438.202148 374.648438 289.304688 405.231445 369.507812 244.741211 470.62793 336.731445 391.360352 354.120117 425.980469 333.092773 390.978516 354.144531 369.737305 245.172852 584.237305 265.635742 474.052734 221.608398 652.931641 370.598633 651.570312 509.413086 508.21875 471.367187 508.061523 366.922852 524.163086 416.941406 457.28418 511.338867 323.96875 477.65332 380.978516 420.172852 390.431641 516.533203 233.200195 651 289.394531 405.413086 100.119141 503.23877 153.209961 107.515625 564.505859 635.330078 470.604563 336.921718 473.548591 221.931762 302.833968 315.958004 323.5213 477.840544 430.107751 449.950208 381.541041 420.617079 391.434823 355.104557 409.997536 404.3397 422.130387 379.566283 455.388885 381.332943 467.568003 419.646694 410.170428 694.259425 652.066468 509.946026 584.117636 265.752476 423.619446 401.245915 437.923182 393.154101 436.975931 420.294429 409.974403 404.594167 410.563695 694.489542 100.211106 503.331097 468.157295 419.243686 430.811493 449.661649 455.776042 381.596354 508.220052 366.645833 468.998698 419.460938 508.122396 471.263021 564.244792 635.299479 653.244792 371.114583 523.960938 417.040365 584.31901 265.917969 470.714844 337.114583 72.0917969 287.835938 289.202148 405.456055"></polyline>
                <path d="M593.589844,548.337891 L611.404297,498.505859 L650.810547,510.986328 L632.292969,437.542969 L653.552734,369.857422 L616.533203,383.283203 L602.681641,328.488281 L520.701172,259.728516 L583.052734,265.431641 L474.496094,220.748047 L424.478516,249.173828 L368.904297,243.765625 L378.664062,275.542969 L346.535156,292.525391 L333.103516,321.914062 L302.9375,314.488281 L289.529297,405.376953 L309.974609,364.414062 L324.826172,477.376953 L458.621094,512.191406 L454.417969,489.357422 L390.789062,517.654297 L456.251953,438.876953 L438.900391,470.617188 L402.734375,444.097656 L383.826172,461.023438 L356.789062,447.580078 L440.992188,421.414062 L431.955078,449.691406 L381.566406,423.265625 L410.603516,405.488281 L375.677734,388.671875 L400.660156,381.634766 L412.251953,390.746094 L425.917969,333.005859 L483.085938,373.988281 L457.529297,381.042969 L422.789062,379.5625 L428.84375,395.857422 L439.123047,394.988281 L508.958984,472.875 L511.792969,564.505859 L428.460938,612.263672 L434.144531,580.412109 L565.867188,635.097656 L536.607422,598.300781 L409.904297,693.226562 L328.589844,570.394531 L300.681641,593.820312 L247.941406,597.023438 L257.126953,540.580078 L191.941406,482.375 L171.441406,487.189453 L160.552734,471.837891 M128.775391,296.117188 L125.681641,319.097656 L72.3300781,288.097656 L100.607422,504.189453" id="Main-links" stroke="url(#radialGradient-2)" stroke-width="0.75" stroke-dasharray="2"></path>
                <g id="Vortex" transform="translate(0.000000, 1.000000)">
                    <polyline id="Round-spiral" stroke="url(#radialGradient-3)" stroke-width="0.5" transform="translate(359.362059, 381.686205) rotate(-105.000000) translate(-359.362059, -381.686205) " points="313.589697 442.625068 314.855666 440.697019 316.715913 439.162484 319.047788 438.204122 321.67235 437.966476 324.366234 438.538669 326.077426 439.383097 327.63154 440.585006 328.953874 442.115631 329.974922 443.930674 330.633608 445.971228 330.880357 448.165354 330.67987 450.430319 330.013472 452.675404 328.880898 454.805232 327.301422 456.723484 325.314233 458.336882 322.977994 459.559287 320.369562 460.315743 317.581868 460.546301 314.720988 460.209439 311.902494 459.284922 309.247181 457.775942 306.87631 455.710396 304.90656 453.141221 303.444847 450.145683 302.583253 446.823614 302.401038 445.076822 302.394265 443.294585 302.568236 441.494305 302.926544 439.694094 303.470976 437.912602 304.201447 436.168841 305.115939 434.482001 306.21047 432.871255 307.479074 431.355557 308.913802 429.953446 310.504751 428.682834 312.240099 427.560807 314.106179 426.603421 316.087561 425.825507 318.16716 425.240476 320.326365 424.860145 322.545183 424.694561 324.802408 424.751847 327.075804 425.038057 329.342303 425.557059 331.578222 426.310422 333.759485 427.297333 335.861867 428.514538 337.861236 429.956299 339.733807 431.614381 341.456399 433.478062 343.006693 435.534171 344.363489 437.76715 345.506958 440.159145 346.41889 442.690121 347.082931 445.338009 347.484806 448.078866 347.612529 450.887073 347.456598 453.735552 347.010164 456.595995 346.269186 459.439128 345.23255 462.234985 343.902173 464.953191 342.283073 467.563272 340.383407 470.034964 338.214483 472.338536 335.790734 474.445107 333.129665 476.326978 330.251762 477.957951 327.180365 479.313644 323.94152 480.371802 320.56378 481.112584 317.077991 481.518849 313.517038 481.576406 309.915567 481.274256 306.309676 480.604795 302.736586 479.564 299.234289 478.151573 295.841178 476.371057 292.595658 474.229913 289.535755 471.739561 286.698703 468.915381 284.12054 465.776667 281.835698 462.346548 279.876596 458.651862 278.273248 454.722988 277.052877 450.593638 276.239552 446.300607 275.853843 441.883481 275.912503 437.384314 276.428184 432.847267 277.409179 428.318206 278.859209 423.844287 280.777249 419.4735 283.157393 415.254198 285.988773 411.234609 289.255522 407.462331 292.93679 403.983818 297.006811 400.84387 301.435023 398.085114 306.186241 395.747502 311.220886 393.867814 316.495259 392.479185 321.961878 391.61065 327.569849 391.286725 333.265298 391.527014 338.991835 392.345863 344.691068 393.75205 350.303145 395.748535 355.767328 398.332247 361.022604 401.493942 366.008299 405.218115 370.664724 409.482969 374.933819 414.260456 378.759805 419.516383 382.089827 425.210577 384.874592 431.297131 387.068985 437.724701 388.632659 444.436877 389.530598 451.372622 389.733637 458.466758 389.21894 465.650525 387.970423 472.852179 385.979125 479.997654 383.243512 487.011254 379.769715 493.81639 375.571693 500.33635 370.671325 506.495084 365.098417 512.218016 358.890634 517.432862 352.093339 522.070441 344.759355 526.065489 336.948642 529.357451 328.727886 531.891248 320.170012 533.618012 311.353611 534.495776 302.362299 534.490117 293.283996 533.574734 284.210149 531.731968 275.234887 528.953238 266.454124 525.239402 257.964623 520.601032 249.863016 515.058591 242.244801 508.642519 235.203318 501.393214 228.828714 493.360908 223.206924 484.605448 218.418642 475.195953 214.53834 465.210382 211.633303 454.734987 209.762725 443.863666 208.976846 432.697222 209.316171 421.342521 210.810757 409.911571 213.47959 398.520507 217.33006 387.288519 222.357535 376.336704 228.545055 365.786872 235.863135 355.7603 244.269698 346.376466 253.710139 337.751753 264.117512 329.998152 275.412858 323.221975 287.505663 317.522578 300.294452 312.991127 313.667512 309.709411 327.503745 307.748713 341.673643 307.168757 356.040376 308.016749 370.460992 310.326509 384.787718 314.117723 398.869343 319.395321 412.552682 326.14898 425.684108 334.352781 438.111127 343.965008 449.683991 354.928111 460.257332 367.168828 469.691799 380.598481 477.855682 395.113424 484.626503 410.59568 489.892558 426.91373 493.5544 443.923475 495.526233 461.469349 495.737205 479.385592 494.132595 497.497662 490.674854 515.623779 485.344508 533.576596 478.140904 551.16497 469.082771 568.195831 458.208609 584.476123 445.576879 599.814806 431.265993 614.024892 415.374096 626.925509 398.018638 638.343948 379.335738 648.117704 359.479322 656.096461 338.62007 662.14401 316.944139 666.140085 294.651701 667.982082 271.955289 667.58665 249.077959 664.891129 226.251298 659.854814 203.713277 652.460036 181.705979 642.713028 160.473209 630.644577 140.258027 616.310435 121.3002 599.791488 103.833626 581.193668 88.0837348 560.647603 74.2648969 538.307998 62.5778769 514.352755 53.2073454 488.981821 46.3194869 462.415771 42.0597265 434.894142 40.5506036 406.67352 41.8898206 378.025382 46.1484888 349.233739 53.3695991 320.592558 63.5667373 292.40302 76.7230661 264.970615 92.7905918 238.602103 111.689732 213.602376 133.309197 190.271244 157.506197 168.900177 184.106982 149.769039 212.907717 133.142838 243.675695 119.268543 276.150889 108.371983 310.047829 100.654881 345.057798 96.292041 380.851339 95.4287362 417.081048 98.1783236 453.384639 104.620116 489.38825 114.797546 524.709972 128.716644 558.963563 146.344862 591.762326 167.610257 622.723092 192.401063 651.470303 220.565659 677.640123 251.912952"></polyline>
                    <polyline id="Square-spiral" stroke="url(#radialGradient-4)" stroke-width="1.25" stroke-dasharray="5,3" transform="translate(361.267767, 378.438138) rotate(-105.000000) translate(-361.267767, -378.438138) " points="312.995404 436.877001 316.12162 433.414417 323.771941 432.790602 329.380629 438.182607 328.286605 449.057165 314.126695 454.461372 301.98896 441.075546 303.607154 430.420774 311.645806 421.81274 324.208115 419.003779 337.266944 424.208232 345.824597 436.942054 345.674893 453.691061 335.196442 468.697039 316.483698 475.770782 295.246885 470.62299 279.282303 452.903795 275.833891 427.099199 288.66123 401.714264 315.900967 386.731118 349.708852 390.000468 378.165512 413.768315 389.139345 452.718691 374.9774 494.588283 336.35435 523.609384 283.615857 525.983901 234.609025 495.645146 209.168433 438.115599 221.763243 370.588637 274.818566 317.473908 355.446083 302.268682 437.516835 338.216941 489.298265 421.165663 484.750216 527.828529 414.779803 621.177441 294.057409 662.234015 159.878917 624.89651 61.9835843 508.604688 45.5541963 343.485672 132.714904 184.523177 309.453536 94.9068142 524.115679 122.968577 677.04583 246.164885"></polyline>
                </g>
                <g id="Circles" transform="translate(118.000000, 0.000000)">
                    <circle id="Oval-3" stroke="url(#radialGradient-5)" stroke-width="0.75" opacity="0.75" cx="329.5" cy="382.5" r="48.5"></circle>
                    <circle id="Oval-4" stroke="url(#radialGradient-6)" stroke-width="0.75" opacity="0.75" cx="293.5" cy="431.5" r="48.5"></circle>
                    <circle id="Oval-5" stroke="url(#radialGradient-6)" stroke-width="0.75" opacity="0.75" cx="279.5" cy="446.5" r="69.5"></circle>
                    <circle id="Oval-6" stroke="url(#radialGradient-5)" stroke-width="0.75" opacity="0.75" cx="362" cy="350" r="95"></circle>
                    <circle id="Oval-7" stroke="url(#radialGradient-5)" stroke-width="0.75" opacity="0.75" cx="362" cy="350" r="93"></circle>
                    <circle id="Oval-8" stroke="url(#radialGradient-5)" stroke-width="0.75" opacity="0.75" cx="362" cy="350" r="84"></circle>
                    <path d="M497,363.624416 C497,306.739084 450.885332,260.624416 394,260.624416 C354.919323,260.624416 320.922183,282.389616 303.469016,314.459581 C295.517576,329.070244 291,345.819762 291,363.624416" id="Oval-9" stroke="url(#radialGradient-6)" stroke-width="5" stroke-dasharray="1,5" opacity="0.5" transform="translate(394.000000, 319.562208) rotate(-315.000000) translate(-394.000000, -319.562208) "></path>
                    <path d="M300,466 C300,522.885332 346.114668,569 403,569 C459.885332,569 506,522.885332 506,466 C506,409.114668 459.885332,363 403,363" id="Oval-10" stroke="url(#radialGradient-7)" stroke-dasharray="1,5"></path>
                    <circle id="Oval-11" stroke="url(#radialGradient-6)" stroke-width="0.25" opacity="0.75" cx="291.5" cy="321.5" r="291.5"></circle>
                    <g id="Dial" stroke="url(#radialGradient-6)" opacity="0.75">
                        <use id="Oval-12" mask="url(#mask-9)" stroke-width="10" stroke-dasharray="1,20" xlink:href="#path-8"></use>
                        <use id="Oval-13" mask="url(#mask-11)" stroke-width="25" stroke-dasharray="2,80" xlink:href="#path-10"></use>
                        <use id="Oval-14" mask="url(#mask-13)" stroke-width="0.5" xlink:href="#path-12"></use>
                    </g>
                </g>
                <path d="M128.5,299 C129.880712,299 131,297.880712 131,296.5 C131,295.119288 129.880712,294 128.5,294 C127.119288,294 126,295.119288 126,296.5 C126,297.880712 127.119288,299 128.5,299 Z M125.5,322 C126.880712,322 128,320.880712 128,319.5 C128,318.119288 126.880712,317 125.5,317 C124.119288,317 123,318.119288 123,319.5 C123,320.880712 124.119288,322 125.5,322 Z M72.5,291 C73.8807119,291 75,289.880712 75,288.5 C75,287.119288 73.8807119,286 72.5,286 C71.1192881,286 70,287.119288 70,288.5 C70,289.880712 71.1192881,291 72.5,291 Z M170.5,490 C171.880712,490 173,488.880712 173,487.5 C173,486.119288 171.880712,485 170.5,485 C169.119288,485 168,486.119288 168,487.5 C168,488.880712 169.119288,490 170.5,490 Z M160.5,475 C161.880712,475 163,473.880712 163,472.5 C163,471.119288 161.880712,470 160.5,470 C159.119288,470 158,471.119288 158,472.5 C158,473.880712 159.119288,475 160.5,475 Z M191.5,485 C192.880712,485 194,483.880712 194,482.5 C194,481.119288 192.880712,480 191.5,480 C190.119288,480 189,481.119288 189,482.5 C189,483.880712 190.119288,485 191.5,485 Z M100.5,506 C101.880712,506 103,504.880712 103,503.5 C103,502.119288 101.880712,501 100.5,501 C99.1192881,501 98,502.119288 98,503.5 C98,504.880712 99.1192881,506 100.5,506 Z M233.5,654 C234.880712,654 236,652.880712 236,651.5 C236,650.119288 234.880712,649 233.5,649 C232.119288,649 231,650.119288 231,651.5 C231,652.880712 232.119288,654 233.5,654 Z M511.5,568 C512.880712,568 514,566.880712 514,565.5 C514,564.119288 512.880712,563 511.5,563 C510.119288,563 509,564.119288 509,565.5 C509,566.880712 510.119288,568 511.5,568 Z M278.5,618 C279.880712,618 281,616.880712 281,615.5 C281,614.119288 279.880712,613 278.5,613 C277.119288,613 276,614.119288 276,615.5 C276,616.880712 277.119288,618 278.5,618 Z M247.5,599 C248.880712,599 250,597.880712 250,596.5 C250,595.119288 248.880712,594 247.5,594 C246.119288,594 245,595.119288 245,596.5 C245,597.880712 246.119288,599 247.5,599 Z M252.5,571 C253.880712,571 255,569.880712 255,568.5 C255,567.119288 253.880712,566 252.5,566 C251.119288,566 250,567.119288 250,568.5 C250,569.880712 251.119288,571 252.5,571 Z M257.5,545 C258.880712,545 260,543.880712 260,542.5 C260,541.119288 258.880712,540 257.5,540 C256.119288,540 255,541.119288 255,542.5 C255,543.880712 256.119288,545 257.5,545 Z M300.5,596 C301.880712,596 303,594.880712 303,593.5 C303,592.119288 301.880712,591 300.5,591 C299.119288,591 298,592.119288 298,593.5 C298,594.880712 299.119288,596 300.5,596 Z M276.5,465 C277.880712,465 279,463.880712 279,462.5 C279,461.119288 277.880712,460 276.5,460 C275.119288,460 274,461.119288 274,462.5 C274,463.880712 275.119288,465 276.5,465 Z M327.5,573 C328.880712,573 330,571.880712 330,570.5 C330,569.119288 328.880712,568 327.5,568 C326.119288,568 325,569.119288 325,570.5 C325,571.880712 326.119288,573 327.5,573 Z M433.5,583 C434.880712,583 436,581.880712 436,580.5 C436,579.119288 434.880712,578 433.5,578 C432.119288,578 431,579.119288 431,580.5 C431,581.880712 432.119288,583 433.5,583 Z M428.5,615 C429.880712,615 431,613.880712 431,612.5 C431,611.119288 429.880712,610 428.5,610 C427.119288,610 426,611.119288 426,612.5 C426,613.880712 427.119288,615 428.5,615 Z M528.5,591 C529.880712,591 531,589.880712 531,588.5 C531,587.119288 529.880712,586 528.5,586 C527.119288,586 526,587.119288 526,588.5 C526,589.880712 527.119288,591 528.5,591 Z M536.5,601 C537.880712,601 539,599.880712 539,598.5 C539,597.119288 537.880712,596 536.5,596 C535.119288,596 534,597.119288 534,598.5 C534,599.880712 535.119288,601 536.5,601 Z M564.5,638 C565.880712,638 567,636.880712 567,635.5 C567,634.119288 565.880712,633 564.5,633 C563.119288,633 562,634.119288 562,635.5 C562,636.880712 563.119288,638 564.5,638 Z M409.5,696 C410.880712,696 412,694.880712 412,693.5 C412,692.119288 410.880712,691 409.5,691 C408.119288,691 407,692.119288 407,693.5 C407,694.880712 408.119288,696 409.5,696 Z M593.5,550 C594.880712,550 596,548.880712 596,547.5 C596,546.119288 594.880712,545 593.5,545 C592.119288,545 591,546.119288 591,547.5 C591,548.880712 592.119288,550 593.5,550 Z M650.5,513 C651.880712,513 653,511.880712 653,510.5 C653,509.119288 651.880712,508 650.5,508 C649.119288,508 648,509.119288 648,510.5 C648,511.880712 649.119288,513 650.5,513 Z M652.5,373 C653.880712,373 655,371.880712 655,370.5 C655,369.119288 653.880712,368 652.5,368 C651.119288,368 650,369.119288 650,370.5 C650,371.880712 651.119288,373 652.5,373 Z M559.5,327 C560.880712,327 562,325.880712 562,324.5 C562,323.119288 560.880712,322 559.5,322 C558.119288,322 557,323.119288 557,324.5 C557,325.880712 558.119288,327 559.5,327 Z M582.5,268 C583.880712,268 585,266.880712 585,265.5 C585,264.119288 583.880712,263 582.5,263 C581.119288,263 580,264.119288 580,265.5 C580,266.880712 581.119288,268 582.5,268 Z M473.5,224 C474.880712,224 476,222.880712 476,221.5 C476,220.119288 474.880712,219 473.5,219 C472.119288,219 471,220.119288 471,221.5 C471,222.880712 472.119288,224 473.5,224 Z M368.5,247 C369.880712,247 371,245.880712 371,244.5 C371,243.119288 369.880712,242 368.5,242 C367.119288,242 366,243.119288 366,244.5 C366,245.880712 367.119288,247 368.5,247 Z M346.5,297 C347.880712,297 349,295.880712 349,294.5 C349,293.119288 347.880712,292 346.5,292 C345.119288,292 344,293.119288 344,294.5 C344,295.880712 345.119288,297 346.5,297 Z M482.5,376 C483.880712,376 485,374.880712 485,373.5 C485,372.119288 483.880712,371 482.5,371 C481.119288,371 480,372.119288 480,373.5 C480,374.880712 481.119288,376 482.5,376 Z M520.5,263 C521.880712,263 523,261.880712 523,260.5 C523,259.119288 521.880712,258 520.5,258 C519.119288,258 518,259.119288 518,260.5 C518,261.880712 519.119288,263 520.5,263 Z M423.5,252 C424.880712,252 426,250.880712 426,249.5 C426,248.119288 424.880712,247 423.5,247 C422.119288,247 421,248.119288 421,249.5 C421,250.880712 422.119288,252 423.5,252 Z M378.5,279 C379.880712,279 381,277.880712 381,276.5 C381,275.119288 379.880712,274 378.5,274 C377.119288,274 376,275.119288 376,276.5 C376,277.880712 377.119288,279 378.5,279 Z M332.5,325 C333.880712,325 335,323.880712 335,322.5 C335,321.119288 333.880712,320 332.5,320 C331.119288,320 330,321.119288 330,322.5 C330,323.880712 331.119288,325 332.5,325 Z M310.5,368 C311.880712,368 313,366.880712 313,365.5 C313,364.119288 311.880712,363 310.5,363 C309.119288,363 308,364.119288 308,365.5 C308,366.880712 309.119288,368 310.5,368 Z M302.5,319 C303.880712,319 305,317.880712 305,316.5 C305,315.119288 303.880712,314 302.5,314 C301.119288,314 300,315.119288 300,316.5 C300,317.880712 301.119288,319 302.5,319 Z M289.5,408 C290.880712,408 292,406.880712 292,405.5 C292,404.119288 290.880712,403 289.5,403 C288.119288,403 287,404.119288 287,405.5 C287,406.880712 288.119288,408 289.5,408 Z M324.5,480 C325.880712,480 327,478.880712 327,477.5 C327,476.119288 325.880712,475 324.5,475 C323.119288,475 322,476.119288 322,477.5 C322,478.880712 323.119288,480 324.5,480 Z M390.5,520 C391.880712,520 393,518.880712 393,517.5 C393,516.119288 391.880712,515 390.5,515 C389.119288,515 388,516.119288 388,517.5 C388,518.880712 389.119288,520 390.5,520 Z M400.5,384 C401.880712,384 403,382.880712 403,381.5 C403,380.119288 401.880712,379 400.5,379 C399.119288,379 398,380.119288 398,381.5 C398,382.880712 399.119288,384 400.5,384 Z M356.5,450 C357.880712,450 359,448.880712 359,447.5 C359,446.119288 357.880712,445 356.5,445 C355.119288,445 354,446.119288 354,447.5 C354,448.880712 355.119288,450 356.5,450 Z M383.5,463 C384.880712,463 386,461.880712 386,460.5 C386,459.119288 384.880712,458 383.5,458 C382.119288,458 381,459.119288 381,460.5 C381,461.880712 382.119288,463 383.5,463 Z M438.5,473 C439.880712,473 441,471.880712 441,470.5 C441,469.119288 439.880712,468 438.5,468 C437.119288,468 436,469.119288 436,470.5 C436,471.880712 437.119288,473 438.5,473 Z M453.5,493 C454.880712,493 456,491.880712 456,490.5 C456,489.119288 454.880712,488 453.5,488 C452.119288,488 451,489.119288 451,490.5 C451,491.880712 452.119288,493 453.5,493 Z M458.5,515 C459.880712,515 461,513.880712 461,512.5 C461,511.119288 459.880712,510 458.5,510 C457.119288,510 456,511.119288 456,512.5 C456,513.880712 457.119288,515 458.5,515 Z M508.5,475 C509.880712,475 511,473.880712 511,472.5 C511,471.119288 509.880712,470 508.5,470 C507.119288,470 506,471.119288 506,472.5 C506,473.880712 507.119288,475 508.5,475 Z M602.5,331 C603.880712,331 605,329.880712 605,328.5 C605,327.119288 603.880712,326 602.5,326 C601.119288,326 600,327.119288 600,328.5 C600,329.880712 601.119288,331 602.5,331 Z M616.5,386 C617.880712,386 619,384.880712 619,383.5 C619,382.119288 617.880712,381 616.5,381 C615.119288,381 614,382.119288 614,383.5 C614,384.880712 615.119288,386 616.5,386 Z M611.5,501 C612.880712,501 614,499.880712 614,498.5 C614,497.119288 612.880712,496 611.5,496 C610.119288,496 609,497.119288 609,498.5 C609,499.880712 610.119288,501 611.5,501 Z M631.5,440 C632.880712,440 634,438.880712 634,437.5 C634,436.119288 632.880712,435 631.5,435 C630.119288,435 629,436.119288 629,437.5 C629,438.880712 630.119288,440 631.5,440 Z M525.5,421 C526.880712,421 528,419.880712 528,418.5 C528,417.119288 526.880712,416 525.5,416 C524.119288,416 523,417.119288 523,418.5 C523,419.880712 524.119288,421 525.5,421 Z M509.5,370 C510.880712,370 512,368.880712 512,367.5 C512,366.119288 510.880712,365 509.5,365 C508.119288,365 507,366.119288 507,367.5 C507,368.880712 508.119288,370 509.5,370 Z M425.5,336 C426.880712,336 428,334.880712 428,333.5 C428,332.119288 426.880712,331 425.5,331 C424.119288,331 423,332.119288 423,333.5 C423,334.880712 424.119288,336 425.5,336 Z M375.5,391 C376.880712,391 378,389.880712 378,388.5 C378,387.119288 376.880712,386 375.5,386 C374.119288,386 373,387.119288 373,388.5 C373,389.880712 374.119288,391 375.5,391 Z M381.5,426 C382.880712,426 384,424.880712 384,423.5 C384,422.119288 382.880712,421 381.5,421 C380.119288,421 379,422.119288 379,423.5 C379,424.880712 380.119288,426 381.5,426 Z M402.5,447 C403.880712,447 405,445.880712 405,444.5 C405,443.119288 403.880712,442 402.5,442 C401.119288,442 400,443.119288 400,444.5 C400,445.880712 401.119288,447 402.5,447 Z M431.5,453 C432.880712,453 434,451.880712 434,450.5 C434,449.119288 432.880712,448 431.5,448 C430.119288,448 429,449.119288 429,450.5 C429,451.880712 430.119288,453 431.5,453 Z M455.5,442 C456.880712,442 458,440.880712 458,439.5 C458,438.119288 456.880712,437 455.5,437 C454.119288,437 453,438.119288 453,439.5 C453,440.880712 454.119288,442 455.5,442 Z M468.5,401 C469.880712,401 471,399.880712 471,398.5 C471,397.119288 469.880712,396 468.5,396 C467.119288,396 466,397.119288 466,398.5 C466,399.880712 467.119288,401 468.5,401 Z M456.5,384 C457.880712,384 459,382.880712 459,381.5 C459,380.119288 457.880712,379 456.5,379 C455.119288,379 454,380.119288 454,381.5 C454,382.880712 455.119288,384 456.5,384 Z M422.5,383 C423.880712,383 425,381.880712 425,380.5 C425,379.119288 423.880712,378 422.5,378 C421.119288,378 420,379.119288 420,380.5 C420,381.880712 421.119288,383 422.5,383 Z M411.5,394 C412.880712,394 414,392.880712 414,391.5 C414,390.119288 412.880712,389 411.5,389 C410.119288,389 409,390.119288 409,391.5 C409,392.880712 410.119288,394 411.5,394 Z M410.5,408 C411.880712,408 413,406.880712 413,405.5 C413,404.119288 411.880712,403 410.5,403 C409.119288,403 408,404.119288 408,405.5 C408,406.880712 409.119288,408 410.5,408 Z M440.5,424 C441.880712,424 443,422.880712 443,421.5 C443,420.119288 441.880712,419 440.5,419 C439.119288,419 438,420.119288 438,421.5 C438,422.880712 439.119288,424 440.5,424 Z M448.5,409 C449.880712,409 451,407.880712 451,406.5 C451,405.119288 449.880712,404 448.5,404 C447.119288,404 446,405.119288 446,406.5 C446,407.880712 447.119288,409 448.5,409 Z M438.5,397 C439.880712,397 441,395.880712 441,394.5 C441,393.119288 439.880712,392 438.5,392 C437.119288,392 436,393.119288 436,394.5 C436,395.880712 437.119288,397 438.5,397 Z M428.5,398 C429.880712,398 431,396.880712 431,395.5 C431,394.119288 429.880712,393 428.5,393 C427.119288,393 426,394.119288 426,395.5 C426,396.880712 427.119288,398 428.5,398 Z" id="Nodes" fill="url(#radialGradient-14)"></path>
            </g>
        </g>
    </g>
</svg>