<?xml version="1.0" encoding="UTF-8" standalone="no"?><!DOCTYPE svg PUBLIC "-//W3C//DTD SVG 1.1//EN" "http://www.w3.org/Graphics/SVG/1.1/DTD/svg11.dtd"><svg width="100%" height="100%" viewBox="0 0 304 361" version="1.1" xmlns="http://www.w3.org/2000/svg" xmlns:xlink="http://www.w3.org/1999/xlink" xml:space="preserve" style="fill-rule:evenodd;clip-rule:evenodd;stroke-linejoin:round;stroke-miterlimit:1.41421;"><g id="flat.-helmet"><path id="helmet.-back" d="M152.048,292.32c9.124,0 12.775,2.037 20.528,5.684c0.444,-6.33 0.702,-14.222 0.702,-21.689c0,0 15.917,-10.461 21.642,-27.324c0,0 -11.523,-4.644 -38.703,13.4c-1.828,0 -4.285,0 -4.285,0c0.116,-0.08 -2.341,-0.08 -4.169,-0.08c-27.181,-18.037 -39.703,-13.396 -39.703,-13.396c5.725,16.856 22.642,27.312 22.642,27.312c0,7.521 0.262,15.459 0.713,21.826c0,0 11.467,-5.733 20.633,-5.733Z" style="fill:#fff;"/><path id="helmet.-outline" d="M288.564,181.519l12.043,-8.681c0,0 -7.034,-68.318 -29.62,-117.455c-22.587,-49.137 -62.31,-55.256 -62.31,-55.256l-0.704,1.722c11.884,3.356 68.898,24.027 64.783,110.856c-4.922,103.846 -113.596,136.713 -113.596,136.713l-2.192,6.386c28.561,-18.651 46.943,-12.763 46.943,-12.763c-3.953,19.911 -24.028,34.12 -24.028,34.12c0,56.107 -13.888,81.429 -13.888,81.429c-1.149,2.506 -0.561,2.882 1.287,0.844c0,0 36.629,-39.329 44.273,-60.349c0,0 -2.878,-21.924 6.492,-35.618c5.044,-7.372 9.23,-7.962 16.464,-8.082c7.234,-0.121 14.45,7.567 14.45,7.567l6.125,-6.131c-5.786,-4.891 -14.086,-10.993 -22.147,-14.03c-13.393,-5.047 -28.491,-0.274 -28.491,-0.274c-0.538,0.148 -0.597,0.011 -0.146,-0.313l84.254,-60.69l0.008,0.005Zm-239.43,75.466l5.877,5.88c0,0 7.215,-7.685 14.449,-7.565c7.234,0.121 11.42,0.711 16.464,8.08c9.37,13.688 6.493,35.604 6.493,35.604c7.643,21.011 44.272,60.325 44.272,60.325c1.848,2.037 2.436,1.661 1.288,-0.844c0,0 -13.889,-25.312 -13.889,-81.397c0,0 -20.075,-14.203 -24.028,-34.106c0,0 18.434,-5.903 47.064,12.837l-2.19,-6.381c0,0 -108.674,-32.867 -113.596,-136.713c-4.107,-86.66 52.677,-107.419 64.713,-110.836l-0.757,-1.869c0,0 -39.723,6.26 -62.309,55.377c-22.586,49.118 -29.62,117.409 -29.62,117.409l13.254,9.551l-0.047,0.023l82.904,60.207c0.449,0.326 0.39,0.464 -0.146,0.314c0,0 -15.064,-4.802 -28.428,0.276c-7.89,2.998 -16.012,8.957 -21.768,13.828Zm66.956,-99.077c-4.982,3.168 -10.179,5.635 -20.796,6.155c-14.253,-1.271 -32.455,-19.269 -31.913,-75.294c0.541,-56.026 37.681,-74.529 37.681,-74.529l-2.632,-6.496c-6.279,2.407 -56.775,24.32 -51.975,104.961c2.251,37.81 29.742,67.127 56.22,86.81c1.156,0.179 5.631,0.671 8.848,-1.828c4.429,-3.44 4.538,-11.444 4.538,-11.444l0.029,-28.335Zm71.835,0.066c4.963,3.161 10.16,5.619 20.752,6.138c14.253,-1.272 32.455,-19.277 31.914,-75.325c-0.542,-56.047 -37.681,-74.557 -37.681,-74.557l2.666,-6.52c5.88,2.232 56.886,23.967 52.063,104.995c-2.251,37.81 -29.742,67.127 -56.221,86.81c-1.155,0.179 -5.63,0.671 -8.848,-1.828c-4.429,-3.44 -4.537,-11.444 -4.537,-11.444l-0.108,-28.269Z" style="fill:#fff;"/><path id="helmet.-horn.-details" d="M150.309,250.338l-2.375,-6.92c0,0 -105.463,-33.88 -110.596,-130.713c-4.923,-92.871 59.729,-108.194 59.729,-108.194c0,0 -61.095,15.183 -56.612,108.194c3.873,80.357 101.728,118.284 111.592,122.496c9.864,-4.212 107.76,-44.136 111.592,-122.496c4.596,-94.004 -56.613,-108.194 -56.613,-108.194c0,0 64.653,15.323 59.73,108.194c-5.133,96.833 -110.596,130.713 -110.596,130.713l-2.375,6.92l-1.879,0l-1.597,0Z" style="fill:#fff;"/><path id="helmet.-front.-details.-2" d="M109.395,205.466c0,0 5.406,1.113 11.128,-4.779c5.723,-5.892 4.538,-14.444 4.538,-14.444l0.031,-32.145c17.733,-11.568 26.972,-10.445 26.972,-10.445c0.688,0.04 9.467,-0.862 26.854,10.441l0.115,32.149c0,0 -1.185,8.552 4.537,14.444c5.723,5.892 9.129,4.779 9.129,4.779c-22.536,17.724 -39.796,22.746 -40.635,23.096c-0.86,-0.342 -20.133,-5.372 -42.669,-23.096Z" style="fill:#fff;"/><path id="helmet.-cheek.-details" d="M45.389,253.362c0,0 3.65,-3.485 2.996,-10.279c-0.55,-5.708 -6.093,-10.213 -6.093,-10.213l-42.292,-42.292l11.637,-5.005l66.839,49.994c0.449,0.326 -3.928,-0.71 -16.574,5.59c-6.428,3.202 -16.513,12.205 -16.513,12.205Z" style="fill:#fff;"/><path id="helmet.-cheek.-details.-4" d="M258.611,253.362c0,0 -3.65,-3.485 -2.996,-10.279c0.55,-5.708 6.093,-10.213 6.093,-10.213l42.292,-42.292l-11.637,-5.005l-66.839,49.994c-0.449,0.326 3.928,-0.71 16.574,5.59c6.428,3.202 16.513,12.205 16.513,12.205Z" style="fill:#fff;"/></g></svg>