<?xml version="1.0" encoding="UTF-8" standalone="no"?><!DOCTYPE svg PUBLIC "-//W3C//DTD SVG 1.1//EN" "http://www.w3.org/Graphics/SVG/1.1/DTD/svg11.dtd"><svg width="100%" height="100%" viewBox="0 0 121 121" version="1.1" xmlns="http://www.w3.org/2000/svg" xmlns:xlink="http://www.w3.org/1999/xlink" xml:space="preserve" xmlns:serif="http://www.serif.com/" style="fill-rule:evenodd;clip-rule:evenodd;stroke-linecap:round;stroke-linejoin:round;stroke-miterlimit:1.5;"><path d="M116.669,21.042c0,-9.315 -7.563,-16.875 -16.875,-16.875l-78.749,0c-9.257,0.002 -16.873,7.619 -16.875,16.875l-0,78.75c-0,9.312 7.559,16.875 16.875,16.875l78.749,-0c9.312,-0 16.875,-7.563 16.875,-16.875l0,-78.75Z" style="fill:none;stroke:#ebebeb;stroke-width:6.25px;"/><path d="M90.414,47.898l9.586,9.586l0,-9.586l-9.586,-0Zm-14.759,-0l-12.504,-0l15.865,15.865l-14.758,-0l-15.865,-15.865l-13.287,-0l15.865,15.865l-14.759,-0l-13.701,-13.702c-0.168,0.412 -0.255,0.854 -0.255,1.299l0,43.081c0,2.402 1.947,4.348 4.348,4.348l69.048,0c2.401,0 4.348,-1.946 4.348,-4.348l-0,-30.678l-8.48,-0l-15.865,-15.865Zm11.266,-25.854l-13.15,1.905l-13.427,17.976l13.151,-1.905l13.426,-17.976Zm-27.756,4.021l-12.375,1.793l-13.426,17.976l12.375,-1.793l13.426,-17.976Zm39.927,6.748l-1.168,-8.062l-9.824,13.153l8.062,-1.168c1.892,-0.274 3.204,-2.031 2.93,-3.923Zm-66.908,-2.839l-8.384,1.215c-1.893,0.274 -3.205,2.031 -2.93,3.923l1.066,7.358l0.148,1.027l3.469,-4.645l6.631,-8.878Z" style="fill:#ebebeb;fill-rule:nonzero;"/></svg>