<?xml version="1.0" encoding="UTF-8" standalone="no"?><!DOCTYPE svg PUBLIC "-//W3C//DTD SVG 1.1//EN" "http://www.w3.org/Graphics/SVG/1.1/DTD/svg11.dtd"><svg width="100%" height="100%" viewBox="0 0 15 15" version="1.1" xmlns="http://www.w3.org/2000/svg" xmlns:xlink="http://www.w3.org/1999/xlink" xml:space="preserve" xmlns:serif="http://www.serif.com/" style="fill-rule:evenodd;clip-rule:evenodd;stroke-linejoin:round;stroke-miterlimit:1.41421;"><path id="no" d="M2.357,2.946c0,-0.331 -0.267,-0.589 -0.589,-0.589c-0.332,0 -0.589,0.258 -0.589,0.589c0,0.323 0.257,0.59 0.589,0.59c0.322,0 0.589,-0.267 0.589,-0.59Zm1.473,4.715c0,0.322 -0.267,0.589 -0.589,0.589l-2.652,0c-0.322,0 -0.589,-0.267 -0.589,-0.589l0,-5.893c0,-0.322 0.267,-0.589 0.589,-0.589l2.652,0c0.322,0 0.589,0.267 0.589,0.589l0,5.893Zm10.396,-1.372c0.313,0.35 0.506,0.884 0.506,1.372c-0.009,0.957 -0.81,1.768 -1.768,1.768l-2.55,0c0.073,0.294 0.166,0.386 0.267,0.589c0.239,0.479 0.515,1.013 0.515,1.768c0,0.709 0,2.357 -2.062,2.357c-0.157,0 -0.304,-0.065 -0.414,-0.175c-0.396,-0.387 -0.507,-0.958 -0.608,-1.501c-0.111,-0.534 -0.212,-1.086 -0.571,-1.446c-0.285,-0.285 -0.598,-0.681 -0.93,-1.104c-0.405,-0.534 -1.289,-1.63 -1.63,-1.658c-0.304,-0.027 -0.561,-0.285 -0.561,-0.589l0,-5.902c0,-0.322 0.276,-0.58 0.589,-0.589c0.322,-0.01 0.875,-0.203 1.455,-0.406c0.994,-0.34 2.237,-0.773 3.554,-0.773l1.188,0c0.81,0.009 1.418,0.249 1.814,0.718c0.349,0.415 0.506,0.976 0.451,1.667c0.23,0.221 0.405,0.525 0.497,0.865c0.101,0.369 0.101,0.737 0,1.078c0.276,0.368 0.414,0.801 0.396,1.261c0,0.129 -0.037,0.405 -0.138,0.7Z" style="fill:#8ec7ff;fill-rule:nonzero;"/></svg>