<?xml version="1.0" encoding="UTF-8" standalone="no"?><!DOCTYPE svg PUBLIC "-//W3C//DTD SVG 1.1//EN" "http://www.w3.org/Graphics/SVG/1.1/DTD/svg11.dtd"><svg width="100%" height="100%" viewBox="0 0 121 121" version="1.1" xmlns="http://www.w3.org/2000/svg" xmlns:xlink="http://www.w3.org/1999/xlink" xml:space="preserve" xmlns:serif="http://www.serif.com/" style="fill-rule:evenodd;clip-rule:evenodd;stroke-linecap:round;stroke-linejoin:round;stroke-miterlimit:1.5;"><path d="M116.669,21.042c0,-9.315 -7.563,-16.875 -16.875,-16.875l-78.749,0c-9.257,0.002 -16.873,7.619 -16.875,16.875l-0,78.75c-0,9.312 7.559,16.875 16.875,16.875l78.749,-0c9.312,-0 16.875,-7.563 16.875,-16.875l0,-78.75Z" style="fill:none;stroke:#ebebeb;stroke-width:8.32px;"/><g><path d="M53.571,25.473c0,-0.558 -0.221,-1.094 -0.616,-1.488c-0.395,-0.395 -0.93,-0.617 -1.489,-0.617c-5.722,-0 -21.514,-0 -27.24,-0c-1.164,0 -2.108,0.944 -2.108,2.108c-0,5.745 -0,21.62 -0,27.295c-0,0.544 0.216,1.065 0.6,1.45c0.385,0.384 0.906,0.601 1.45,0.601c5.675,-0 21.547,-0 27.293,-0c0.56,-0 1.096,-0.223 1.492,-0.619c0.396,-0.395 0.618,-0.932 0.618,-1.492c0,-5.727 0,-21.517 0,-27.238Z" style="fill:#ebebeb;"/><path d="M53.766,68.117c-0,-0.558 -0.222,-1.094 -0.617,-1.489c-0.395,-0.394 -0.93,-0.616 -1.488,-0.616c-5.722,-0 -21.514,-0 -27.24,-0c-1.165,-0 -2.109,0.944 -2.109,2.108c0,5.744 0,21.619 0,27.295c0,0.544 0.216,1.065 0.601,1.45c0.384,0.384 0.906,0.6 1.45,0.6c5.675,0 21.547,0 27.293,0c0.559,0 1.096,-0.222 1.492,-0.618c0.395,-0.395 0.618,-0.932 0.618,-1.492c-0,-5.727 -0,-21.517 -0,-27.238Z" style="fill:#ebebeb;"/><path d="M98.521,25.473c0,-0.558 -0.222,-1.094 -0.616,-1.488c-0.395,-0.395 -0.931,-0.617 -1.489,-0.617c-5.722,-0 -21.514,-0 -27.24,-0c-1.164,0 -2.108,0.944 -2.108,2.108c-0,5.745 -0,21.62 -0,27.295c-0,0.544 0.216,1.065 0.6,1.45c0.385,0.384 0.906,0.601 1.45,0.601c5.675,-0 21.547,-0 27.293,-0c0.559,-0 1.096,-0.223 1.492,-0.619c0.396,-0.395 0.618,-0.932 0.618,-1.492c0,-5.727 0,-21.517 0,-27.238Z" style="fill:#ebebeb;"/><path d="M98.716,91.25l-6.14,0l0,6.215l4.029,0c0.56,0 1.097,-0.222 1.492,-0.618c0.396,-0.395 0.619,-0.932 0.619,-1.492l-0,-4.105Zm-8.223,6.215l0,-6.215l-6.36,0l-0,6.215l6.36,0Zm-8.444,0l0,-6.215l-6.36,0l0,6.215l6.36,0Zm-8.443,-6.215l-6.344,0l0,4.165c0,0.544 0.216,1.065 0.601,1.45c0.384,0.384 0.906,0.6 1.45,0.6l4.293,0l-0,-6.215Zm25.11,-2.083l-0,-6.388l-6.14,-0l0,6.388l6.14,-0Zm-25.204,-6.388l0,6.388l-6.25,-0l0,-6.388l6.25,-0Zm25.204,-2.084l-0,-6.387l-6.14,-0l0,6.387l6.14,0Zm-25.204,-6.387l0,6.387l-6.25,0l0,-6.387l6.25,-0Zm19.064,-8.296l0,6.212l6.14,0l-0,-4.107c-0,-0.558 -0.222,-1.094 -0.617,-1.489c-0.395,-0.394 -0.93,-0.616 -1.488,-0.616l-4.035,-0Zm-18.97,-0l-4.236,-0c-1.164,-0 -2.108,0.944 -2.108,2.108l0,4.104l6.344,0l-0,-6.212Zm10.527,-0l-0,6.212l6.36,0l0,-6.212l-6.36,-0Zm-8.444,-0l0,6.212l6.36,0l0,-6.212l-6.36,-0Z" style="fill:#ebebeb;"/></g></svg>