<?xml version="1.0" encoding="UTF-8" standalone="no"?><!DOCTYPE svg PUBLIC "-//W3C//DTD SVG 1.1//EN" "http://www.w3.org/Graphics/SVG/1.1/DTD/svg11.dtd"><svg width="100%" height="100%" viewBox="0 0 20 22" version="1.1" xmlns="http://www.w3.org/2000/svg" xmlns:xlink="http://www.w3.org/1999/xlink" xml:space="preserve" style="fill-rule:evenodd;clip-rule:evenodd;stroke-linejoin:round;stroke-miterlimit:1.41421;"><path id="error" d="M3.423,6.096c0,-0.427 -0.344,-0.76 -0.761,-0.76c-0.427,0 -0.76,0.333 -0.76,0.76c0,0.416 0.333,0.761 0.76,0.761c0.417,0 0.761,-0.345 0.761,-0.761Zm1.902,6.086c0,0.416 -0.345,0.761 -0.761,0.761l-3.423,0c-0.416,0 -0.761,-0.345 -0.761,-0.761l0,-7.607c0,-0.416 0.345,-0.761 0.761,-0.761l3.423,0c0.416,0 0.761,0.345 0.761,0.761l0,7.607Zm13.419,-1.771c0.405,0.452 0.654,1.141 0.654,1.771c-0.012,1.236 -1.046,2.282 -2.282,2.282l-3.292,0c0.095,0.381 0.214,0.5 0.344,0.761c0.309,0.618 0.666,1.307 0.666,2.282c0,0.915 0,3.043 -2.663,3.043c-0.202,0 -0.392,-0.083 -0.534,-0.226c-0.512,-0.499 -0.654,-1.236 -0.785,-1.937c-0.143,-0.69 -0.273,-1.403 -0.737,-1.866c-0.368,-0.369 -0.772,-0.88 -1.2,-1.427c-0.523,-0.689 -1.664,-2.104 -2.104,-2.139c-0.392,-0.036 -0.725,-0.369 -0.725,-0.761l0,-7.619c0,-0.416 0.356,-0.749 0.76,-0.761c0.416,-0.012 1.13,-0.261 1.878,-0.523c1.284,-0.439 2.889,-0.998 4.588,-0.998l1.534,0c1.046,0.012 1.83,0.321 2.341,0.927c0.452,0.535 0.654,1.26 0.583,2.151c0.297,0.286 0.523,0.678 0.642,1.118c0.13,0.475 0.13,0.951 0,1.39c0.356,0.476 0.535,1.034 0.511,1.629c0,0.166 -0.048,0.523 -0.179,0.903Z" style="fill:#ebebeb;fill-rule:nonzero;"/></svg>