<svg viewBox="0 0 18 18" xmlns="http://www.w3.org/2000/svg" fill-rule="evenodd" clip-rule="evenodd" stroke-linejoin="round" stroke-miterlimit="2"><path d="M18 16V2c0-1.1-.9-2-2-2H8C6.9 0 6 .9 6 2v2c0 1.1-.9 2-2 2H2C.9 6 0 6.9 0 8v8c0 1.1.9 2 2 2h14c1.1 0 2-.9 2-2zm-5-6c0 1.7-1.3 3-3 3H7.406a.406.406 0 00-.406.406v1.22a.362.362 0 01-.618.256L4.08 12.58a.819.819 0 010-1.16l2.35-2.35a.334.334 0 01.57.237v1.371c0 .085.034.167.094.228.061.06.143.094.228.094H10c.6 0 1-.4 1-1V6.387c0-.214.173-.387.387-.387h1.273c.09 0 .177.036.24.1.064.063.1.15.1.24V10z" fill-rule="nonzero" fill="hsla(0,0%,92.2%,0.25)"/></svg>